<svg width="26" height="21" fill="none" xmlns="http://www.w3.org/2000/svg"><g clip-path="url(#clip0_2_71)"><path d="M25.469 2.4c-.95.412-1.954.684-2.982.806A5.142 5.142 0 0024.772.38a10.427 10.427 0 01-3.3 1.239A5.228 5.228 0 0017.68 0c-2.87 0-5.192 2.289-5.192 5.11-.002.392.043.784.134 1.165A14.803 14.803 0 011.917.933a5.046 5.046 0 00-.706 2.569c0 1.771.924 3.338 2.32 4.255A5.142 5.142 0 011.17 7.12v.063c0 2.479 1.793 4.54 4.166 5.01-.446.12-.906.18-1.368.18a5.07 5.07 0 01-.976-.095c.66 2.03 2.58 3.506 4.854 3.549a10.526 10.526 0 01-7.69 2.114 14.696 14.696 0 007.95 2.31c9.563 0 14.788-7.789 14.788-14.544 0-.222-.005-.443-.016-.66a10.468 10.468 0 002.59-2.647z" fill="#fff"/></g><defs><clipPath id="clip0_2_71"><path fill="#fff" d="M0 0h26v21H0z"/></clipPath></defs></svg>