<svg width="167" height="120" fill="none" xmlns="http://www.w3.org/2000/svg"><path d="M76.204 7.77c2.521-2.534 8.44-2.534 10.961 0 2.113 2.123 6.794 2.542 9.783.875 3.565-1.988 9.244-.95 10.517 1.924 1.066 2.408 5.368 3.631 8.989 2.556 4.321-1.283 9.301.71 9.221 3.69-.066 2.499 3.508 4.427 7.469 4.031 4.727-.473 8.603 2.313 7.178 5.159-1.193 2.385 1.363 4.863 5.343 5.177 4.749.376 7.208 3.729 4.554 6.21-2.224 2.079-.892 4.905 2.784 5.905 4.386 1.193 5.228 4.842 1.56 6.756-3.075 1.605-3.075 4.55 0 6.155 3.668 1.915 2.826 5.563-1.56 6.756-3.676 1-5.008 3.827-2.784 5.906 2.654 2.48.195 5.833-4.554 6.209-3.98.314-6.536 2.792-5.343 5.178 1.425 2.845-2.451 5.631-7.178 5.158-3.961-.396-7.535 1.533-7.469 4.03.08 2.981-4.9 4.974-9.221 3.69-3.621-1.075-7.923.15-8.989 2.558-1.273 2.874-6.952 3.912-10.517 1.922-2.989-1.666-7.67-1.247-9.783.877-2.52 2.534-8.44 2.534-10.96 0-2.114-2.124-6.795-2.544-9.783-.877-3.565 1.99-9.244.952-10.517-1.922-1.067-2.409-5.369-3.632-8.99-2.557-4.32 1.283-9.3-.71-9.22-3.69.066-2.498-3.509-4.427-7.47-4.03-4.725.472-8.602-2.314-7.178-5.16 1.194-2.385-1.363-4.863-5.343-5.177-4.748-.376-7.207-3.729-4.553-6.21 2.224-2.078.892-4.904-2.784-5.905-4.386-1.193-5.229-4.841-1.56-6.756 3.075-1.605 3.075-4.55 0-6.155-3.669-1.914-2.826-5.563 1.56-6.756 3.676-1 5.008-3.826 2.784-5.905-2.654-2.481-.195-5.834 4.553-6.21 3.98-.314 6.537-2.792 5.343-5.177-1.424-2.846 2.453-5.632 7.178-5.159 3.961.396 7.535-1.532 7.47-4.03-.08-2.98 4.9-4.974 9.22-3.69 3.621 1.074 7.923-.149 8.99-2.557 1.273-2.874 6.952-3.912 10.517-1.924 2.988 1.667 7.67 1.248 9.782-.875z" fill="#82B4B4"/><path d="M79.835 5.508c2.52-2.534 8.44-2.534 10.96 0 2.114 2.124 6.795 2.543 9.783.876 3.565-1.989 9.244-.95 10.517 1.923 1.067 2.409 5.368 3.632 8.99 2.557 4.32-1.283 9.3.71 9.22 3.69-.065 2.498 3.508 4.427 7.469 4.03 4.727-.472 8.603 2.314 7.179 5.16-1.193 2.385 1.362 4.862 5.343 5.177 4.748.376 7.207 3.729 4.553 6.21-2.224 2.078-.892 4.904 2.785 5.905 4.385 1.193 5.228 4.841 1.56 6.756-3.075 1.605-3.075 4.55 0 6.155 3.668 1.914 2.825 5.563-1.56 6.756-3.677 1-5.009 3.826-2.785 5.906 2.654 2.48.195 5.833-4.553 6.209-3.981.314-6.536 2.792-5.343 5.177 1.424 2.846-2.452 5.632-7.179 5.159-3.961-.397-7.534 1.533-7.469 4.03.08 2.98-4.9 4.973-9.22 3.69-3.622-1.075-7.923.15-8.99 2.558-1.273 2.873-6.952 3.912-10.517 1.922-2.988-1.667-7.67-1.247-9.782.877-2.521 2.533-8.44 2.533-10.961 0-2.113-2.124-6.794-2.544-9.783-.877-3.565 1.99-9.244.951-10.517-1.922-1.066-2.409-5.368-3.633-8.99-2.557-4.32 1.282-9.3-.71-9.22-3.69.066-2.498-3.508-4.428-7.47-4.031-4.725.473-8.601-2.313-7.177-5.159 1.194-2.385-1.364-4.863-5.343-5.177-4.748-.376-7.207-3.729-4.554-6.21 2.225-2.079.892-4.905-2.784-5.905-4.386-1.193-5.228-4.842-1.56-6.756 3.075-1.605 3.075-4.55 0-6.155-3.668-1.915-2.826-5.563 1.56-6.756 3.676-1 5.009-3.827 2.784-5.906-2.653-2.48-.194-5.833 4.554-6.209 3.98-.315 6.537-2.792 5.343-5.177-1.424-2.846 2.452-5.632 7.178-5.16 3.96.397 7.535-1.532 7.469-4.03-.08-2.98 4.9-4.973 9.22-3.69 3.622 1.075 7.924-.148 8.99-2.557 1.273-2.873 6.952-3.912 10.517-1.923 2.989 1.667 7.67 1.248 9.783-.876z" fill="#fff"/><path d="M58.88 20.76c0-.75.14-1.455.42-2.115.29-.67.69-1.26 1.2-1.77a5.585 5.585 0 011.756-1.215c.67-.3 1.39-.45 2.16-.45.76 0 1.47.15 2.13.45.67.29 1.26.695 1.77 1.215.52.51.925 1.1 1.215 1.77a5.2 5.2 0 01.435 2.115c0 .77-.145 1.49-.435 2.16-.29.67-.695 1.26-1.215 1.77-.51.5-1.1.895-1.77 1.185-.66.28-1.37.42-2.13.42-.77 0-1.49-.14-2.16-.42a5.62 5.62 0 01-1.755-1.17 5.48 5.48 0 01-1.2-1.755c-.28-.67-.42-1.4-.42-2.19zm1.5.015c0 .57.106 1.105.316 1.605.21.49.5.925.87 1.305.37.38.8.68 1.29.9.49.21 1.02.315 1.59.315.56 0 1.085-.105 1.575-.315.49-.22.915-.52 1.275-.9.36-.38.645-.815.855-1.305.21-.5.315-1.04.315-1.62 0-.57-.105-1.105-.315-1.605-.21-.51-.5-.955-.87-1.335a3.96 3.96 0 00-1.29-.885 3.8 3.8 0 00-1.575-.33c-.57 0-1.1.11-1.59.33-.49.22-.92.52-1.29.9s-.655.825-.855 1.335c-.2.5-.3 1.035-.3 1.605zm21.577 5.745l-8.385-8.505.42.105.03 8.055h-1.455V15h.075l8.295 8.535-.345-.075-.03-8.13h1.44v11.19h-.045zm3.314-11.19h1.455v9.45h5.505v1.395h-6.96V15.33zm11.204 7.23l-4.02-7.23h1.785l3.225 5.985-.45.03 3.195-6.015h1.77l-4.05 7.23v3.615h-1.455V22.56zM67.216 64.635c0 2.64-.88 4.9-2.64 6.78-1.76 1.84-4.22 2.96-7.38 3.36v5.88c0 .28-.2.42-.6.42-.44 0-.66-.14-.66-.42v-5.76h-1.08c-3.08 0-5.9-.7-8.46-2.1-.2-.12-.34-.26-.42-.42-.04-.16-.08-.4-.12-.72l-.78-8.16c-.04-.16.04-.26.24-.3.24-.04.38.02.42.18.64 2.84 1.8 5.3 3.48 7.38 1.68 2.04 3.92 3.1 6.72 3.18v-17.1l-1.32-.78c-1.92-1.16-3.44-2.16-4.56-3-1.08-.84-2-1.9-2.76-3.18-.76-1.28-1.14-2.78-1.14-4.5 0-2.72.94-4.88 2.82-6.48 1.92-1.6 4.24-2.54 6.96-2.82v-5.04c0-.16.06-.28.18-.36.12-.08.28-.12.48-.12.16 0 .3.04.42.12.12.08.18.2.18.36v4.98h.12c2.36 0 4.7.48 7.02 1.44.6.2.9.54.9 1.02l.42 6.9c0 .16-.1.24-.3.24-.2 0-.32-.08-.36-.24-.32-1.96-1.12-3.8-2.4-5.52-1.24-1.72-3.04-2.68-5.4-2.88v16.08c.08.08.4.28.96.6 2.08 1.24 3.7 2.28 4.86 3.12 1.16.84 2.14 1.92 2.94 3.24.84 1.28 1.26 2.82 1.26 4.62zm-17.52-20.94c0 1.88.54 3.48 1.62 4.8 1.08 1.28 2.62 2.54 4.62 3.78v-15.36c-2.08.08-3.64.78-4.68 2.1-1.04 1.28-1.56 2.84-1.56 4.68zm7.5 30.18c1.8-.16 3.28-.78 4.44-1.86 1.16-1.12 1.74-2.78 1.74-4.98 0-2.16-.54-3.94-1.62-5.34-1.08-1.44-2.6-2.8-4.56-4.08v16.26zm18.143.3c-.08 0-.12-.12-.12-.36s.04-.36.12-.36c1.88 0 3.28-.1 4.2-.3.92-.24 1.56-.64 1.92-1.2.4-.56.6-1.44.6-2.64v-24.72c0-2.12-.54-3.18-1.62-3.18-1 0-2.78.96-5.34 2.88l-.12.06c-.16 0-.28-.1-.36-.3-.08-.2-.04-.34.12-.42l10.02-7.38c.2-.12.34-.18.42-.18.08 0 .16.04.24.12.08.08.12.16.12.24v32.88c0 1.2.16 2.1.48 2.7.32.56.94.94 1.86 1.14.92.2 2.36.3 4.32.3.08 0 .12.12.12.36s-.04.36-.12.36c-1.48 0-2.64-.02-3.48-.06l-4.92-.06-4.86.06c-.88.04-2.08.06-3.6.06zm34.437.78c-2.4 0-4.54-.82-6.42-2.46-1.84-1.64-3.28-3.94-4.32-6.9-1-2.96-1.5-6.36-1.5-10.2 0-3.8.52-7.16 1.56-10.08 1.04-2.96 2.48-5.26 4.32-6.9 1.88-1.64 4.04-2.46 6.48-2.46 2.36 0 4.44.82 6.24 2.46 1.84 1.64 3.26 3.96 4.26 6.96 1 2.96 1.5 6.36 1.5 10.2 0 3.8-.52 7.18-1.56 10.14-1 2.92-2.42 5.2-4.26 6.84-1.84 1.6-3.94 2.4-6.3 2.4zm.72-.84c2.4 0 4.18-1.54 5.34-4.62 1.2-3.12 1.8-7.52 1.8-13.2 0-6.4-.78-11.26-2.34-14.58-1.56-3.32-3.58-4.98-6.06-4.98-2.4 0-4.26 1.64-5.58 4.92-1.28 3.28-1.92 7.72-1.92 13.32 0 5.88.78 10.54 2.34 13.98 1.56 3.44 3.7 5.16 6.42 5.16z" fill="#292E36"/></svg>