<svg width="166" height="115" fill="none" xmlns="http://www.w3.org/2000/svg"><path d="M75.748 7.77c2.506-2.534 8.39-2.534 10.895 0 2.1 2.123 6.754 2.542 9.724.875 3.544-1.988 9.189-.95 10.454 1.924 1.06 2.408 5.336 3.631 8.936 2.556 4.295-1.283 9.245.71 9.165 3.69-.065 2.499 3.487 4.427 7.424 4.031 4.699-.473 8.552 2.313 7.136 5.159-1.186 2.385 1.355 4.863 5.311 5.177 4.72.376 7.164 3.729 4.526 6.21-2.211 2.079-.886 4.905 2.768 5.905 4.36 1.193 5.197 4.842 1.551 6.756-3.057 1.605-3.057 4.55 0 6.155 3.646 1.915 2.809 5.563-1.551 6.756-3.654 1-4.979 3.827-2.768 5.906 2.638 2.48.194 5.833-4.526 6.209-3.956.314-6.497 2.792-5.311 5.178 1.416 2.845-2.437 5.631-7.136 5.158-3.937-.396-7.489 1.533-7.424 4.03.08 2.981-4.87 4.974-9.165 3.69-3.6-1.075-7.876.15-8.936 2.558-1.265 2.874-6.91 3.912-10.454 1.922-2.97-1.666-7.623-1.247-9.724.877-2.506 2.534-8.39 2.534-10.895 0-2.1-2.124-6.754-2.544-9.724-.877-3.544 1.99-9.189.952-10.454-1.922-1.06-2.409-5.336-3.632-8.936-2.557-4.294 1.283-9.244-.71-9.165-3.69.065-2.498-3.487-4.427-7.425-4.03-4.697.472-8.55-2.314-7.135-5.16 1.187-2.385-1.355-4.863-5.31-5.177-4.72-.376-7.165-3.729-4.527-6.21 2.211-2.078.887-4.904-2.767-5.905-4.36-1.193-5.198-4.841-1.551-6.756 3.056-1.605 3.056-4.55 0-6.155-3.647-1.914-2.81-5.563 1.55-6.756 3.655-1 4.98-3.826 2.768-5.905-2.638-2.481-.194-5.834 4.526-6.21 3.956-.314 6.498-2.792 5.311-5.177-1.415-2.846 2.438-5.632 7.135-5.159 3.938.396 7.49-1.532 7.425-4.03-.079-2.98 4.87-4.974 9.165-3.69 3.6 1.074 7.876-.149 8.936-2.557 1.265-2.874 6.91-3.912 10.454-1.924 2.97 1.667 7.624 1.248 9.724-.875z" fill="#BBB"/><path d="M79.357 5.508c2.505-2.534 8.39-2.534 10.895 0 2.1 2.124 6.753 2.543 9.724.876 3.544-1.989 9.189-.95 10.454 1.923 1.06 2.409 5.336 3.632 8.936 2.557 4.294-1.283 9.244.71 9.165 3.69-.065 2.498 3.487 4.427 7.424 4.03 4.699-.472 8.552 2.314 7.136 5.16-1.186 2.385 1.354 4.862 5.311 5.177 4.72.376 7.164 3.729 4.526 6.21-2.211 2.078-.886 4.904 2.768 5.905 4.359 1.193 5.196 4.841 1.55 6.756-3.056 1.605-3.056 4.55 0 6.155 3.646 1.914 2.809 5.563-1.55 6.756-3.654 1-4.979 3.826-2.768 5.906 2.638 2.48.194 5.833-4.526 6.209-3.957.314-6.497 2.792-5.311 5.177 1.416 2.846-2.437 5.632-7.136 5.159-3.937-.397-7.489 1.533-7.424 4.03.079 2.98-4.871 4.973-9.165 3.69-3.6-1.075-7.876.15-8.936 2.558-1.265 2.873-6.91 3.912-10.454 1.922-2.97-1.667-7.624-1.247-9.724.877-2.506 2.533-8.39 2.533-10.895 0-2.1-2.124-6.754-2.544-9.724-.877-3.544 1.99-9.19.951-10.454-1.922-1.06-2.409-5.336-3.633-8.936-2.557-4.295 1.282-9.244-.71-9.166-3.69.066-2.498-3.487-4.428-7.424-4.031-4.697.473-8.55-2.313-7.135-5.159 1.186-2.385-1.355-4.863-5.311-5.177-4.72-.376-7.164-3.729-4.526-6.21 2.21-2.079.886-4.905-2.768-5.905-4.36-1.193-5.197-4.842-1.55-6.756 3.056-1.605 3.056-4.55 0-6.155-3.647-1.915-2.81-5.563 1.55-6.756 3.654-1 4.979-3.827 2.768-5.906-2.638-2.48-.194-5.833 4.526-6.209 3.956-.315 6.497-2.792 5.311-5.177-1.415-2.846 2.438-5.632 7.135-5.16 3.937.397 7.49-1.532 7.424-4.03-.078-2.98 4.871-4.973 9.166-3.69 3.6 1.075 7.876-.148 8.936-2.557 1.265-2.873 6.91-3.912 10.454-1.923 2.97 1.667 7.623 1.248 9.724-.876z" fill="#292E36"/><path d="M79.225 63.562c0 2.64-.88 4.9-2.64 6.78-1.76 1.84-4.22 2.96-7.38 3.36v5.88c0 .28-.2.42-.6.42-.44 0-.66-.14-.66-.42v-5.76h-1.08c-3.08 0-5.9-.7-8.46-2.1-.2-.12-.34-.26-.42-.42-.04-.16-.08-.4-.12-.72l-.78-8.16c-.04-.16.04-.26.24-.3.24-.04.38.02.42.18.64 2.84 1.8 5.3 3.48 7.38 1.68 2.04 3.92 3.1 6.72 3.18v-17.1l-1.32-.78c-1.92-1.16-3.44-2.16-4.56-3-1.08-.84-2-1.9-2.76-3.18-.76-1.28-1.14-2.78-1.14-4.5 0-2.72.94-4.88 2.82-6.48 1.92-1.6 4.24-2.54 6.96-2.82v-5.04c0-.16.06-.28.18-.36.12-.08.28-.12.48-.12.16 0 .3.04.42.12.12.08.18.2.18.36v4.98h.12c2.36 0 4.7.48 7.02 1.44.6.2.9.54.9 1.02l.42 6.9c0 .16-.1.24-.3.24-.2 0-.32-.08-.36-.24-.32-1.96-1.12-3.8-2.4-5.52-1.24-1.72-3.04-2.68-5.4-2.88v16.08c.08.08.4.28.96.6 2.08 1.24 3.7 2.28 4.86 3.12 1.16.84 2.14 1.92 2.94 3.24.84 1.28 1.26 2.82 1.26 4.62zm-17.52-20.94c0 1.88.54 3.48 1.62 4.8 1.08 1.28 2.62 2.54 4.62 3.78v-15.36c-2.08.08-3.64.78-4.68 2.1-1.04 1.28-1.56 2.84-1.56 4.68zm7.5 30.18c1.8-.16 3.28-.78 4.44-1.86 1.16-1.12 1.74-2.78 1.74-4.98 0-2.16-.54-3.94-1.62-5.34-1.08-1.44-2.6-2.8-4.56-4.08v16.26zm26.063-16.98c-1.96 0-3.64-.46-5.04-1.38a9.247 9.247 0 01-3.24-3.66c-.72-1.56-1.08-3.26-1.08-5.1 0-2.12.5-3.98 1.5-5.58 1-1.64 2.38-2.9 4.14-3.78 1.76-.92 3.74-1.38 5.94-1.38 3.76 0 6.6 1.3 8.52 3.9 1.92 2.6 2.88 6.08 2.88 10.44 0 3.92-.78 7.74-2.34 11.46-1.52 3.68-3.74 6.72-6.66 9.12-2.92 2.4-6.32 3.72-10.2 3.96-.12.04-.22-.06-.3-.3-.04-.2.02-.32.18-.36 3.28-.64 6.06-2.12 8.34-4.44 2.32-2.32 4.06-5.1 5.22-8.34 1.16-3.28 1.74-6.66 1.74-10.14 0-4-.74-7.36-2.22-10.08-1.48-2.76-3.72-4.14-6.72-4.14-4 0-6 2.68-6 8.04 0 3.12.66 5.6 1.98 7.44 1.32 1.84 3.06 2.76 5.22 2.76.76 0 1.48-.14 2.16-.42.72-.32 1.52-.86 2.4-1.62.04-.04.1-.06.18-.06.12 0 .22.06.3.18.12.12.16.22.12.3-1.68 2.12-4.02 3.18-7.02 3.18zM58.89 16.687c0-.75.14-1.455.42-2.115.29-.67.69-1.26 1.2-1.77a5.585 5.585 0 011.755-1.215c.67-.3 1.39-.45 2.16-.45.76 0 1.47.15 2.13.45.67.29 1.26.695 1.77 1.215.52.51.925 1.1 1.215 1.77a5.2 5.2 0 01.435 2.115c0 .77-.145 1.49-.435 2.16-.29.67-.695 1.26-1.215 1.77-.51.5-1.1.895-1.77 1.185-.66.28-1.37.42-2.13.42-.77 0-1.49-.14-2.16-.42a5.62 5.62 0 01-1.755-1.17 5.48 5.48 0 01-1.2-1.755c-.28-.67-.42-1.4-.42-2.19zm1.5.015c0 .57.105 1.105.315 1.605.21.49.5.925.87 1.305.37.38.8.68 1.29.9.49.21 1.02.315 1.59.315.56 0 1.085-.105 1.575-.315.49-.22.915-.52 1.275-.9.36-.38.645-.815.855-1.305.21-.5.315-1.04.315-1.62 0-.57-.105-1.105-.315-1.605-.21-.51-.5-.955-.87-1.335a3.96 3.96 0 00-1.29-.885 3.8 3.8 0 00-1.575-.33c-.57 0-1.1.11-1.59.33-.49.22-.92.52-1.29.9s-.655.825-.855 1.335c-.2.5-.3 1.035-.3 1.605zm21.576 5.745l-8.385-8.505.42.105.03 8.055h-1.455V10.927h.075l8.295 8.535-.345-.075-.03-8.13h1.44v11.19h-.045zm3.314-11.19h1.455v9.45h5.505v1.395h-6.96V11.257zm11.204 7.23l-4.02-7.23h1.785l3.225 5.985-.45.03 3.195-6.015h1.77l-4.05 7.23v3.615h-1.455v-3.615z" fill="#fff"/></svg>