<svg width="167" height="120" viewBox="0 0 167 120" fill="none" xmlns="http://www.w3.org/2000/svg">
<path d="M76.2043 7.7695C78.7253 5.23569 84.6443 5.23569 87.1653 7.7695C89.2782 9.89321 93.9594 10.3124 96.9476 8.64536C100.513 6.65651 106.192 7.69504 107.465 10.5685C108.531 12.977 112.833 14.2004 116.454 13.1252C120.775 11.8424 125.755 13.8353 125.675 16.8156C125.609 19.3136 129.183 21.2423 133.144 20.846C137.871 20.3732 141.747 23.159 140.322 26.0048C139.129 28.39 141.685 30.8676 145.665 31.1823C150.414 31.5578 152.873 34.9109 150.219 37.3915C147.995 39.4707 149.327 42.2966 153.003 43.2968C157.389 44.4902 158.231 48.1388 154.563 50.0533C151.488 51.658 151.488 54.6032 154.563 56.2079C158.231 58.1225 157.389 61.771 153.003 62.9644C149.327 63.9646 147.995 66.7906 150.219 68.8697C152.873 71.3503 150.414 74.7034 145.665 75.0788C141.685 75.3934 139.129 77.8713 140.322 80.2565C141.747 83.1022 137.871 85.8883 133.144 85.4151C129.183 85.0187 125.609 86.9479 125.675 89.4454C125.755 92.426 120.775 94.4186 116.454 93.1359C112.833 92.0605 108.531 93.2844 107.465 95.693C106.192 98.5665 100.513 99.605 96.9476 97.6155C93.9594 95.9485 89.2782 96.3682 87.1653 98.4919C84.6443 101.026 78.7253 101.026 76.2043 98.4919C74.0914 96.3682 69.4102 95.9485 66.422 97.6155C62.8569 99.605 57.1775 98.5665 55.9051 95.693C54.8384 93.2844 50.5365 92.0605 46.9153 93.1359C42.5948 94.4186 37.6153 92.426 37.6943 89.4454C37.7605 86.9479 34.1864 85.0187 30.2253 85.4151C25.4996 85.8883 21.6234 83.1022 23.0475 80.2565C24.241 77.8713 21.6841 75.3934 17.7043 75.0788C12.9561 74.7034 10.4972 71.3503 13.151 68.8697C15.3753 66.7906 14.0429 63.9646 10.3666 62.9644C5.9806 61.771 5.13823 58.1225 8.80673 56.2079C11.8816 54.6032 11.8816 51.658 8.80673 50.0533C5.13823 48.1388 5.9806 44.4902 10.3666 43.2968C14.0429 42.2966 15.3753 39.4707 13.151 37.3915C10.4972 34.9109 12.9561 31.5578 17.7043 31.1823C21.6841 30.8676 24.241 28.39 23.0475 26.0048C21.6234 23.159 25.4996 20.3732 30.2253 20.846C34.1864 21.2423 37.7605 19.3136 37.6943 16.8156C37.6153 13.8353 42.5948 11.8424 46.9153 13.1252C50.5365 14.2004 54.8384 12.977 55.9051 10.5685C57.1775 7.69504 62.8569 6.65651 66.422 8.64536C69.4102 10.3124 74.0914 9.89321 76.2043 7.7695Z" fill="#82B4B4"/>
<path d="M79.8347 5.50826C82.3557 2.97446 88.2747 2.97446 90.7957 5.50826C92.9086 7.63198 97.5898 8.05115 100.578 6.38415C104.143 4.39528 109.822 5.4338 111.095 8.30723C112.162 10.7157 116.463 11.9392 120.085 10.864C124.405 9.58115 129.385 11.574 129.305 14.5544C129.24 17.0524 132.813 18.9811 136.774 18.5848C141.501 18.1119 145.377 20.8978 143.953 23.7435C142.76 26.1288 145.315 28.6064 149.296 28.9211C154.044 29.2966 156.503 32.6496 153.849 35.1303C151.625 37.2094 152.957 40.0354 156.634 41.0356C161.019 42.2289 161.862 45.8775 158.194 47.792C155.119 49.3968 155.119 52.342 158.194 53.9467C161.862 55.8612 161.019 59.5098 156.634 60.7032C152.957 61.7034 151.625 64.5293 153.849 66.6085C156.503 69.0891 154.044 72.4421 149.296 72.8176C145.315 73.1324 142.76 75.6101 143.953 77.9953C145.377 80.841 141.501 83.6271 136.774 83.1538C132.813 82.7574 129.24 84.6867 129.305 87.1842C129.385 90.1648 124.405 92.1574 120.085 90.8747C116.463 89.7993 112.162 91.0232 111.095 93.4318C109.822 96.3053 104.143 97.3438 100.578 95.3542C97.5898 93.6872 92.9086 94.107 90.7957 96.2307C88.2747 98.7644 82.3557 98.7644 79.8347 96.2307C77.7218 94.107 73.0406 93.6872 70.0524 95.3542C66.4873 97.3438 60.808 96.3053 59.5355 93.4318C58.4689 91.0232 54.1669 89.7993 50.5457 90.8747C46.2252 92.1574 41.2457 90.1648 41.3248 87.1842C41.391 84.6867 37.8168 82.7574 33.8557 83.1538C29.13 83.6271 25.2538 80.841 26.6779 77.9953C27.8715 75.6101 25.3145 73.1324 21.3347 72.8176C16.5865 72.4421 14.1276 69.0891 16.7814 66.6085C19.0057 64.5293 17.6733 61.7034 13.997 60.7032C9.61103 59.5098 8.76866 55.8612 12.4371 53.9467C15.512 52.342 15.512 49.3968 12.4371 47.7921C8.76866 45.8775 9.61103 42.2289 13.997 41.0356C17.6733 40.0354 19.0057 37.2094 16.7814 35.1303C14.1276 32.6496 16.5865 29.2966 21.3347 28.9211C25.3145 28.6064 27.8715 26.1288 26.6779 23.7435C25.2538 20.8978 29.13 18.1119 33.8557 18.5848C37.8168 18.9811 41.391 17.0524 41.3248 14.5544C41.2457 11.574 46.2252 9.58115 50.5457 10.864C54.1669 11.9392 58.4689 10.7157 59.5355 8.30723C60.808 5.43379 66.4873 4.39528 70.0524 6.38415C73.0406 8.05115 77.7218 7.63198 79.8347 5.50826Z" fill="white"/>
<path d="M58.8808 20.7603C58.8808 20.0103 59.0208 19.3053 59.3008 18.6453C59.5908 17.9753 59.9908 17.3853 60.5008 16.8753C61.0108 16.3553 61.5958 15.9503 62.2558 15.6603C62.9258 15.3603 63.6458 15.2103 64.4158 15.2103C65.1758 15.2103 65.8858 15.3603 66.5458 15.6603C67.2158 15.9503 67.8058 16.3553 68.3158 16.8753C68.8358 17.3853 69.2408 17.9753 69.5308 18.6453C69.8208 19.3053 69.9658 20.0103 69.9658 20.7603C69.9658 21.5303 69.8208 22.2503 69.5308 22.9203C69.2408 23.5903 68.8358 24.1803 68.3158 24.6903C67.8058 25.1903 67.2158 25.5853 66.5458 25.8753C65.8858 26.1553 65.1758 26.2953 64.4158 26.2953C63.6458 26.2953 62.9258 26.1553 62.2558 25.8753C61.5958 25.5953 61.0108 25.2053 60.5008 24.7053C59.9908 24.2053 59.5908 23.6203 59.3008 22.9503C59.0208 22.2803 58.8808 21.5503 58.8808 20.7603ZM60.3808 20.7753C60.3808 21.3453 60.4858 21.8803 60.6958 22.3803C60.9058 22.8703 61.1958 23.3053 61.5658 23.6853C61.9358 24.0653 62.3658 24.3653 62.8558 24.5853C63.3458 24.7953 63.8758 24.9003 64.4458 24.9003C65.0058 24.9003 65.5308 24.7953 66.0208 24.5853C66.5108 24.3653 66.9358 24.0653 67.2958 23.6853C67.6558 23.3053 67.9408 22.8703 68.1508 22.3803C68.3608 21.8803 68.4658 21.3403 68.4658 20.7603C68.4658 20.1903 68.3608 19.6553 68.1508 19.1553C67.9408 18.6453 67.6508 18.2003 67.2808 17.8203C66.9108 17.4403 66.4808 17.1453 65.9908 16.9353C65.5008 16.7153 64.9758 16.6053 64.4158 16.6053C63.8458 16.6053 63.3158 16.7153 62.8258 16.9353C62.3358 17.1553 61.9058 17.4553 61.5358 17.8353C61.1658 18.2153 60.8808 18.6603 60.6808 19.1703C60.4808 19.6703 60.3808 20.2053 60.3808 20.7753ZM81.9571 26.5203L73.5721 18.0153L73.9921 18.1203L74.0221 26.1753H72.5671V15.0003H72.6421L80.9371 23.5353L80.5921 23.4603L80.5621 15.3303H82.0021V26.5203H81.9571ZM85.2708 15.3303H86.7258V24.7803H92.2309V26.1753H85.2708V15.3303ZM96.4747 22.5603L92.4547 15.3303H94.2397L97.4647 21.3153L97.0147 21.3453L100.21 15.3303H101.98L97.9297 22.5603V26.1753H96.4747V22.5603Z" fill="#292E36"/>
<path d="M67.2158 64.6353C67.2158 67.2753 66.3358 69.5353 64.5758 71.4153C62.8158 73.2553 60.3558 74.3753 57.1958 74.7753V80.6553C57.1958 80.9353 56.9958 81.0753 56.5958 81.0753C56.1558 81.0753 55.9358 80.9353 55.9358 80.6553V74.8953H54.8558C51.7758 74.8953 48.9558 74.1953 46.3958 72.7953C46.1958 72.6753 46.0558 72.5353 45.9758 72.3753C45.9358 72.2153 45.8958 71.9753 45.8558 71.6553L45.0758 63.4953C45.0358 63.3353 45.1158 63.2353 45.3158 63.1953C45.5558 63.1553 45.6958 63.2153 45.7358 63.3753C46.3758 66.2153 47.5358 68.6753 49.2158 70.7553C50.8958 72.7953 53.1358 73.8553 55.9358 73.9353V56.8353L54.6158 56.0553C52.6958 54.8953 51.1758 53.8953 50.0558 53.0553C48.9758 52.2153 48.0558 51.1553 47.2958 49.8753C46.5358 48.5953 46.1558 47.0953 46.1558 45.3753C46.1558 42.6553 47.0958 40.4953 48.9758 38.8953C50.8958 37.2953 53.2158 36.3553 55.9358 36.0753V31.0353C55.9358 30.8753 55.9958 30.7553 56.1158 30.6753C56.2358 30.5953 56.3958 30.5553 56.5958 30.5553C56.7558 30.5553 56.8958 30.5953 57.0158 30.6753C57.1358 30.7553 57.1958 30.8753 57.1958 31.0353V36.0153H57.3158C59.6758 36.0153 62.0158 36.4953 64.3358 37.4553C64.9358 37.6553 65.2358 37.9953 65.2358 38.4753L65.6558 45.3753C65.6558 45.5353 65.5558 45.6153 65.3558 45.6153C65.1558 45.6153 65.0358 45.5353 64.9958 45.3753C64.6758 43.4153 63.8758 41.5753 62.5958 39.8553C61.3558 38.1353 59.5558 37.1753 57.1958 36.9753V53.0553C57.2758 53.1353 57.5958 53.3353 58.1558 53.6553C60.2358 54.8953 61.8558 55.9353 63.0158 56.7753C64.1758 57.6153 65.1558 58.6953 65.9558 60.0153C66.7958 61.2953 67.2158 62.8353 67.2158 64.6353ZM49.6958 43.6953C49.6958 45.5753 50.2358 47.1753 51.3158 48.4953C52.3958 49.7753 53.9358 51.0353 55.9358 52.2753V36.9153C53.8558 36.9953 52.2958 37.6953 51.2558 39.0153C50.2158 40.2953 49.6958 41.8553 49.6958 43.6953ZM57.1958 73.8753C58.9958 73.7153 60.4758 73.0953 61.6358 72.0153C62.7958 70.8953 63.3758 69.2353 63.3758 67.0353C63.3758 64.8753 62.8358 63.0953 61.7558 61.6953C60.6758 60.2553 59.1558 58.8953 57.1958 57.6153V73.8753ZM75.3386 74.1753C75.2586 74.1753 75.2186 74.0553 75.2186 73.8153C75.2186 73.5753 75.2586 73.4553 75.3386 73.4553C77.2186 73.4553 78.6186 73.3553 79.5386 73.1553C80.4586 72.9153 81.0986 72.5153 81.4586 71.9553C81.8586 71.3953 82.0586 70.5153 82.0586 69.3153V44.5953C82.0586 42.4753 81.5186 41.4153 80.4386 41.4153C79.4386 41.4153 77.6586 42.3753 75.0986 44.2953L74.9786 44.3553C74.8186 44.3553 74.6986 44.2553 74.6186 44.0553C74.5386 43.8553 74.5786 43.7153 74.7386 43.6353L84.7586 36.2553C84.9586 36.1353 85.0986 36.0753 85.1786 36.0753C85.2586 36.0753 85.3386 36.1153 85.4186 36.1953C85.4986 36.2753 85.5386 36.3553 85.5386 36.4353V69.3153C85.5386 70.5153 85.6986 71.4153 86.0186 72.0153C86.3386 72.5753 86.9586 72.9553 87.8786 73.1553C88.7986 73.3553 90.2386 73.4553 92.1986 73.4553C92.2786 73.4553 92.3186 73.5753 92.3186 73.8153C92.3186 74.0553 92.2786 74.1753 92.1986 74.1753C90.7186 74.1753 89.5586 74.1553 88.7186 74.1153L83.7986 74.0553L78.9386 74.1153C78.0586 74.1553 76.8586 74.1753 75.3386 74.1753ZM109.776 74.9553C107.376 74.9553 105.236 74.1353 103.356 72.4953C101.516 70.8553 100.076 68.5553 99.0361 65.5953C98.0361 62.6353 97.5361 59.2353 97.5361 55.3953C97.5361 51.5953 98.0561 48.2353 99.0961 45.3153C100.136 42.3553 101.576 40.0553 103.416 38.4153C105.296 36.7753 107.456 35.9553 109.896 35.9553C112.256 35.9553 114.336 36.7753 116.136 38.4153C117.976 40.0553 119.396 42.3753 120.396 45.3753C121.396 48.3353 121.896 51.7353 121.896 55.5753C121.896 59.3753 121.376 62.7553 120.336 65.7153C119.336 68.6353 117.916 70.9153 116.076 72.5553C114.236 74.1553 112.136 74.9553 109.776 74.9553ZM110.496 74.1153C112.896 74.1153 114.676 72.5753 115.836 69.4953C117.036 66.3753 117.636 61.9753 117.636 56.2953C117.636 49.8953 116.856 45.0353 115.296 41.7153C113.736 38.3953 111.716 36.7353 109.236 36.7353C106.836 36.7353 104.976 38.3753 103.656 41.6553C102.376 44.9353 101.736 49.3753 101.736 54.9753C101.736 60.8553 102.516 65.5153 104.076 68.9553C105.636 72.3953 107.776 74.1153 110.496 74.1153Z" fill="#292E36"/>
</svg>
