<svg width="166" height="115" viewBox="0 0 166 115" fill="none" xmlns="http://www.w3.org/2000/svg">
<path d="M75.7479 7.7695C78.2538 5.23569 84.1374 5.23569 86.6433 7.7695C88.7436 9.89321 93.3967 10.3124 96.3671 8.64536C99.9108 6.65651 105.556 7.69504 106.821 10.5685C107.881 12.977 112.157 14.2004 115.757 13.1252C120.052 11.8424 125.002 13.8353 124.922 16.8156C124.857 19.3136 128.409 21.2423 132.346 20.846C137.045 20.3732 140.898 23.159 139.482 26.0048C138.296 28.39 140.837 30.8676 144.793 31.1823C149.513 31.5578 151.957 34.9109 149.319 37.3915C147.108 39.4707 148.433 42.2966 152.087 43.2968C156.447 44.4902 157.284 48.1388 153.638 50.0533C150.581 51.658 150.581 54.6032 153.638 56.2079C157.284 58.1225 156.447 61.771 152.087 62.9644C148.433 63.9646 147.108 66.7906 149.319 68.8697C151.957 71.3503 149.513 74.7034 144.793 75.0788C140.837 75.3934 138.296 77.8713 139.482 80.2565C140.898 83.1022 137.045 85.8883 132.346 85.4151C128.409 85.0187 124.857 86.9479 124.922 89.4454C125.002 92.426 120.052 94.4186 115.757 93.1359C112.157 92.0605 107.881 93.2844 106.821 95.693C105.556 98.5665 99.9108 99.605 96.3671 97.6155C93.3967 95.9485 88.7436 96.3682 86.6433 98.4919C84.1374 101.026 78.2538 101.026 75.7479 98.4919C73.6477 96.3682 68.9945 95.9485 66.0242 97.6155C62.4804 99.605 56.8351 98.5665 55.5703 95.693C54.51 93.2844 50.2339 92.0605 46.6343 93.1359C42.3397 94.4186 37.39 92.426 37.4686 89.4454C37.5344 86.9479 33.9816 85.0187 30.0443 85.4151C25.3468 85.8883 21.4938 83.1022 22.9094 80.2565C24.0958 77.8713 21.5542 75.3934 17.5983 75.0788C12.8784 74.7034 10.4343 71.3503 13.0722 68.8697C15.2832 66.7906 13.9588 63.9646 10.3045 62.9644C5.94476 61.771 5.10743 58.1225 8.75397 56.2079C11.8104 54.6032 11.8104 51.658 8.75397 50.0533C5.10743 48.1388 5.94476 44.4902 10.3045 43.2968C13.9588 42.2966 15.2832 39.4707 13.0722 37.3915C10.4343 34.9109 12.8784 31.5578 17.5983 31.1823C21.5542 30.8676 24.0958 28.39 22.9094 26.0048C21.4938 23.159 25.3468 20.3732 30.0443 20.846C33.9816 21.2423 37.5344 19.3136 37.4686 16.8156C37.39 13.8353 42.3397 11.8424 46.6343 13.1252C50.2339 14.2004 54.51 12.977 55.5703 10.5685C56.8351 7.69504 62.4804 6.65651 66.0242 8.64536C68.9945 10.3124 73.6477 9.89321 75.7479 7.7695Z" fill="#BBBBBB"/>
<path d="M79.3567 5.50826C81.8625 2.97446 87.7461 2.97446 90.252 5.50826C92.3523 7.63198 97.0054 8.05115 99.9758 6.38415C103.52 4.39528 109.165 5.4338 110.43 8.30723C111.49 10.7157 115.766 11.9392 119.366 10.864C123.66 9.58115 128.61 11.574 128.531 14.5544C128.466 17.0524 132.018 18.9811 135.955 18.5848C140.654 18.1119 144.507 20.8978 143.091 23.7435C141.905 26.1288 144.445 28.6064 148.402 28.9211C153.122 29.2966 155.566 32.6496 152.928 35.1303C150.717 37.2094 152.042 40.0354 155.696 41.0356C160.055 42.2289 160.892 45.8775 157.246 47.792C154.19 49.3968 154.19 52.342 157.246 53.9467C160.892 55.8612 160.055 59.5098 155.696 60.7032C152.042 61.7034 150.717 64.5293 152.928 66.6085C155.566 69.0891 153.122 72.4421 148.402 72.8176C144.445 73.1324 141.905 75.6101 143.091 77.9953C144.507 80.841 140.654 83.6271 135.955 83.1538C132.018 82.7574 128.466 84.6867 128.531 87.1842C128.61 90.1648 123.66 92.1574 119.366 90.8747C115.766 89.7993 111.49 91.0232 110.43 93.4318C109.165 96.3053 103.52 97.3438 99.9758 95.3542C97.0054 93.6872 92.3523 94.107 90.252 96.2307C87.7461 98.7644 81.8625 98.7644 79.3567 96.2307C77.2564 94.107 72.6032 93.6872 69.6329 95.3542C66.0892 97.3438 60.4438 96.3053 59.179 93.4318C58.1188 91.0232 53.8426 89.7993 50.243 90.8747C45.9484 92.1574 40.9987 90.1648 41.0773 87.1842C41.1431 84.6867 37.5903 82.7574 33.653 83.1538C28.9556 83.6271 25.1026 80.841 26.5181 77.9953C27.7045 75.6101 25.1629 73.1324 21.207 72.8176C16.4872 72.4421 14.043 69.0891 16.6809 66.6085C18.8919 64.5293 17.5675 61.7034 13.9132 60.7032C9.55347 59.5098 8.71614 55.8612 12.3627 53.9467C15.4191 52.342 15.4191 49.3968 12.3627 47.7921C8.71614 45.8775 9.55347 42.2289 13.9132 41.0356C17.5675 40.0354 18.8919 37.2094 16.6809 35.1303C14.043 32.6496 16.4872 29.2966 21.207 28.9211C25.1629 28.6064 27.7045 26.1288 26.5181 23.7435C25.1026 20.8978 28.9556 18.1119 33.653 18.5848C37.5903 18.9811 41.1431 17.0524 41.0773 14.5544C40.9987 11.574 45.9484 9.58115 50.243 10.864C53.8426 11.9392 58.1188 10.7157 59.179 8.30723C60.4438 5.43379 66.0892 4.39528 69.6329 6.38415C72.6032 8.05115 77.2564 7.63198 79.3567 5.50826Z" fill="#292E36"/>
<path d="M79.2249 63.5616C79.2249 66.2016 78.3449 68.4616 76.5849 70.3416C74.8249 72.1816 72.3649 73.3016 69.2049 73.7016V79.5816C69.2049 79.8616 69.0049 80.0016 68.6049 80.0016C68.1649 80.0016 67.9449 79.8616 67.9449 79.5816V73.8216H66.8649C63.7849 73.8216 60.9649 73.1216 58.4049 71.7216C58.2049 71.6016 58.0649 71.4616 57.9849 71.3016C57.9449 71.1416 57.9049 70.9016 57.8649 70.5816L57.0849 62.4216C57.0449 62.2616 57.1249 62.1616 57.3249 62.1216C57.5649 62.0816 57.7049 62.1416 57.7449 62.3016C58.3849 65.1416 59.5449 67.6016 61.2249 69.6816C62.9049 71.7216 65.1449 72.7816 67.9449 72.8616V55.7616L66.6249 54.9816C64.7049 53.8216 63.1849 52.8216 62.0649 51.9816C60.9849 51.1416 60.0649 50.0816 59.3049 48.8016C58.5449 47.5216 58.1649 46.0216 58.1649 44.3016C58.1649 41.5816 59.1049 39.4216 60.9849 37.8216C62.9049 36.2216 65.2249 35.2816 67.9449 35.0016V29.9616C67.9449 29.8016 68.0049 29.6816 68.1249 29.6016C68.2449 29.5216 68.4049 29.4816 68.6049 29.4816C68.7649 29.4816 68.9049 29.5216 69.0249 29.6016C69.1449 29.6816 69.2049 29.8016 69.2049 29.9616V34.9416H69.3249C71.6849 34.9416 74.0249 35.4216 76.3449 36.3816C76.9449 36.5816 77.2449 36.9216 77.2449 37.4016L77.6649 44.3016C77.6649 44.4616 77.5649 44.5416 77.3649 44.5416C77.1649 44.5416 77.0449 44.4616 77.0049 44.3016C76.6849 42.3416 75.8849 40.5016 74.6049 38.7816C73.3649 37.0616 71.5649 36.1016 69.2049 35.9016V51.9816C69.2849 52.0616 69.6049 52.2616 70.1649 52.5816C72.2449 53.8216 73.8649 54.8616 75.0249 55.7016C76.1849 56.5416 77.1649 57.6216 77.9649 58.9416C78.8049 60.2216 79.2249 61.7616 79.2249 63.5616ZM61.7049 42.6216C61.7049 44.5016 62.2449 46.1016 63.3249 47.4216C64.4049 48.7016 65.9449 49.9616 67.9449 51.2016V35.8416C65.8649 35.9216 64.3049 36.6216 63.2649 37.9416C62.2249 39.2216 61.7049 40.7816 61.7049 42.6216ZM69.2049 72.8016C71.0049 72.6416 72.4849 72.0216 73.6449 70.9416C74.8049 69.8216 75.3849 68.1616 75.3849 65.9616C75.3849 63.8016 74.8449 62.0216 73.7649 60.6216C72.6849 59.1816 71.1649 57.8216 69.2049 56.5416V72.8016ZM95.2677 55.8216C93.3077 55.8216 91.6277 55.3616 90.2277 54.4416C88.8277 53.5216 87.7477 52.3016 86.9877 50.7816C86.2677 49.2216 85.9077 47.5216 85.9077 45.6816C85.9077 43.5616 86.4077 41.7016 87.4077 40.1016C88.4077 38.4616 89.7877 37.2016 91.5477 36.3216C93.3077 35.4016 95.2877 34.9416 97.4877 34.9416C101.248 34.9416 104.088 36.2416 106.008 38.8416C107.928 41.4416 108.888 44.9216 108.888 49.2816C108.888 53.2016 108.108 57.0216 106.548 60.7416C105.028 64.4216 102.808 67.4616 99.8877 69.8616C96.9677 72.2616 93.5677 73.5816 89.6877 73.8216C89.5677 73.8616 89.4677 73.7616 89.3877 73.5216C89.3477 73.3216 89.4077 73.2016 89.5677 73.1616C92.8477 72.5216 95.6277 71.0416 97.9077 68.7216C100.228 66.4016 101.968 63.6216 103.128 60.3816C104.288 57.1016 104.868 53.7216 104.868 50.2416C104.868 46.2416 104.128 42.8816 102.648 40.1616C101.168 37.4016 98.9277 36.0216 95.9277 36.0216C91.9277 36.0216 89.9277 38.7016 89.9277 44.0616C89.9277 47.1816 90.5877 49.6616 91.9077 51.5016C93.2277 53.3416 94.9677 54.2616 97.1277 54.2616C97.8877 54.2616 98.6077 54.1216 99.2877 53.8416C100.008 53.5216 100.808 52.9816 101.688 52.2216C101.728 52.1816 101.788 52.1616 101.868 52.1616C101.988 52.1616 102.088 52.2216 102.168 52.3416C102.288 52.4616 102.328 52.5616 102.288 52.6416C100.608 54.7616 98.2677 55.8216 95.2677 55.8216Z" fill="white"/>
<path d="M58.8899 16.6866C58.8899 15.9366 59.0299 15.2316 59.3099 14.5716C59.5999 13.9016 59.9999 13.3116 60.5099 12.8016C61.0199 12.2816 61.6049 11.8766 62.2649 11.5866C62.9349 11.2866 63.6549 11.1366 64.4249 11.1366C65.1849 11.1366 65.8949 11.2866 66.5549 11.5866C67.2249 11.8766 67.8149 12.2816 68.3249 12.8016C68.8449 13.3116 69.2499 13.9016 69.5399 14.5716C69.8299 15.2316 69.9749 15.9366 69.9749 16.6866C69.9749 17.4566 69.8299 18.1766 69.5399 18.8466C69.2499 19.5166 68.8449 20.1066 68.3249 20.6166C67.8149 21.1166 67.2249 21.5116 66.5549 21.8016C65.8949 22.0816 65.1849 22.2216 64.4249 22.2216C63.6549 22.2216 62.9349 22.0816 62.2649 21.8016C61.6049 21.5216 61.0199 21.1316 60.5099 20.6316C59.9999 20.1316 59.5999 19.5466 59.3099 18.8766C59.0299 18.2066 58.8899 17.4766 58.8899 16.6866ZM60.3899 16.7016C60.3899 17.2716 60.4949 17.8066 60.7049 18.3066C60.9149 18.7966 61.2049 19.2316 61.5749 19.6116C61.9449 19.9916 62.3749 20.2916 62.8649 20.5116C63.3549 20.7216 63.8849 20.8266 64.4549 20.8266C65.0149 20.8266 65.5399 20.7216 66.0299 20.5116C66.5199 20.2916 66.9449 19.9916 67.3049 19.6116C67.6649 19.2316 67.9499 18.7966 68.1599 18.3066C68.3699 17.8066 68.4749 17.2666 68.4749 16.6866C68.4749 16.1166 68.3699 15.5816 68.1599 15.0816C67.9499 14.5716 67.6599 14.1266 67.2899 13.7466C66.9199 13.3666 66.4899 13.0716 65.9999 12.8616C65.5099 12.6416 64.9849 12.5316 64.4249 12.5316C63.8549 12.5316 63.3249 12.6416 62.8349 12.8616C62.3449 13.0816 61.9149 13.3816 61.5449 13.7616C61.1749 14.1416 60.8899 14.5866 60.6899 15.0966C60.4899 15.5966 60.3899 16.1316 60.3899 16.7016ZM81.9662 22.4466L73.5812 13.9416L74.0012 14.0466L74.0312 22.1016H72.5762V10.9266H72.6512L80.9462 19.4616L80.6012 19.3866L80.5712 11.2566H82.0112V22.4466H81.9662ZM85.2799 11.2566H86.7349V20.7066H92.2399V22.1016H85.2799V11.2566ZM96.4838 18.4866L92.4638 11.2566H94.2488L97.4738 17.2416L97.0238 17.2716L100.219 11.2566H101.989L97.9388 18.4866V22.1016H96.4838V18.4866Z" fill="white"/>
</svg>
